<mxfile host="app.diagrams.net" agent="Mozilla/5.0 (Windows NT 10.0; Win64; x64) AppleWebKit/537.36 (KHTML, like Gecko) Chrome/130.0.0.0 Safari/537.36 Edg/130.0.0.0" version="24.7.17">
  <diagram id="R2lEEEUBdFMjLlhIrx00" name="Page-1">
    <mxGraphModel dx="2314" dy="1114" grid="1" gridSize="10" guides="1" tooltips="1" connect="1" arrows="1" fold="1" page="1" pageScale="1" pageWidth="850" pageHeight="1100" math="0" shadow="0" extFonts="Permanent Marker^https://fonts.googleapis.com/css?family=Permanent+Marker">
      <root>
        <mxCell id="0" />
        <mxCell id="1" parent="0" />
        <mxCell id="rD3EnQ7JaI3qVJnbeRzG-39" style="edgeStyle=orthogonalEdgeStyle;rounded=0;orthogonalLoop=1;jettySize=auto;html=1;exitX=1;exitY=0.5;exitDx=0;exitDy=0;entryX=0;entryY=0.5;entryDx=0;entryDy=0;" edge="1" parent="1" source="rD3EnQ7JaI3qVJnbeRzG-28" target="rD3EnQ7JaI3qVJnbeRzG-38">
          <mxGeometry relative="1" as="geometry" />
        </mxCell>
        <mxCell id="rD3EnQ7JaI3qVJnbeRzG-28" value="paquetes" style="whiteSpace=wrap;html=1;align=center;" vertex="1" parent="1">
          <mxGeometry x="190" y="290" width="100" height="40" as="geometry" />
        </mxCell>
        <mxCell id="rD3EnQ7JaI3qVJnbeRzG-33" style="edgeStyle=orthogonalEdgeStyle;rounded=0;orthogonalLoop=1;jettySize=auto;html=1;exitX=0.5;exitY=1;exitDx=0;exitDy=0;entryX=0.5;entryY=0;entryDx=0;entryDy=0;" edge="1" parent="1" source="rD3EnQ7JaI3qVJnbeRzG-29" target="rD3EnQ7JaI3qVJnbeRzG-32">
          <mxGeometry relative="1" as="geometry" />
        </mxCell>
        <mxCell id="rD3EnQ7JaI3qVJnbeRzG-36" style="edgeStyle=orthogonalEdgeStyle;rounded=0;orthogonalLoop=1;jettySize=auto;html=1;exitX=0.5;exitY=0;exitDx=0;exitDy=0;entryX=0.5;entryY=1;entryDx=0;entryDy=0;" edge="1" parent="1" source="rD3EnQ7JaI3qVJnbeRzG-29" target="rD3EnQ7JaI3qVJnbeRzG-35">
          <mxGeometry relative="1" as="geometry" />
        </mxCell>
        <mxCell id="rD3EnQ7JaI3qVJnbeRzG-29" value="camioneros" style="whiteSpace=wrap;html=1;align=center;" vertex="1" parent="1">
          <mxGeometry x="190" y="100" width="100" height="40" as="geometry" />
        </mxCell>
        <mxCell id="rD3EnQ7JaI3qVJnbeRzG-30" value="provincias" style="whiteSpace=wrap;html=1;align=center;" vertex="1" parent="1">
          <mxGeometry x="560" y="290" width="100" height="40" as="geometry" />
        </mxCell>
        <mxCell id="rD3EnQ7JaI3qVJnbeRzG-31" value="camiones" style="whiteSpace=wrap;html=1;align=center;" vertex="1" parent="1">
          <mxGeometry x="390" y="10" width="100" height="40" as="geometry" />
        </mxCell>
        <mxCell id="rD3EnQ7JaI3qVJnbeRzG-34" style="edgeStyle=orthogonalEdgeStyle;rounded=0;orthogonalLoop=1;jettySize=auto;html=1;exitX=0.5;exitY=1;exitDx=0;exitDy=0;" edge="1" parent="1" source="rD3EnQ7JaI3qVJnbeRzG-32" target="rD3EnQ7JaI3qVJnbeRzG-28">
          <mxGeometry relative="1" as="geometry" />
        </mxCell>
        <mxCell id="rD3EnQ7JaI3qVJnbeRzG-32" value="distribuyen" style="shape=rhombus;perimeter=rhombusPerimeter;whiteSpace=wrap;html=1;align=center;" vertex="1" parent="1">
          <mxGeometry x="180" y="180" width="120" height="60" as="geometry" />
        </mxCell>
        <mxCell id="rD3EnQ7JaI3qVJnbeRzG-37" style="edgeStyle=orthogonalEdgeStyle;rounded=0;orthogonalLoop=1;jettySize=auto;html=1;exitX=1;exitY=0.5;exitDx=0;exitDy=0;entryX=0;entryY=0.5;entryDx=0;entryDy=0;" edge="1" parent="1" source="rD3EnQ7JaI3qVJnbeRzG-35" target="rD3EnQ7JaI3qVJnbeRzG-31">
          <mxGeometry relative="1" as="geometry" />
        </mxCell>
        <mxCell id="rD3EnQ7JaI3qVJnbeRzG-35" value="conducen" style="shape=rhombus;perimeter=rhombusPerimeter;whiteSpace=wrap;html=1;align=center;" vertex="1" parent="1">
          <mxGeometry x="230" width="120" height="60" as="geometry" />
        </mxCell>
        <mxCell id="rD3EnQ7JaI3qVJnbeRzG-40" style="edgeStyle=orthogonalEdgeStyle;rounded=0;orthogonalLoop=1;jettySize=auto;html=1;exitX=1;exitY=0.5;exitDx=0;exitDy=0;entryX=0;entryY=0.5;entryDx=0;entryDy=0;" edge="1" parent="1" source="rD3EnQ7JaI3qVJnbeRzG-38" target="rD3EnQ7JaI3qVJnbeRzG-30">
          <mxGeometry relative="1" as="geometry" />
        </mxCell>
        <mxCell id="rD3EnQ7JaI3qVJnbeRzG-38" value="enviados&amp;nbsp;" style="shape=rhombus;perimeter=rhombusPerimeter;whiteSpace=wrap;html=1;align=center;" vertex="1" parent="1">
          <mxGeometry x="365" y="280" width="120" height="60" as="geometry" />
        </mxCell>
      </root>
    </mxGraphModel>
  </diagram>
</mxfile>
